# xmcd
#
# Track frame offsets:
#	150
#	8724
#	21037
#	34599
#	44692
#	54349
#	62824
#	80044
#	94166
#	105881
#	114109
#	123956
#	135654
#	147516
#	156246
#	167079
#	177501
#	191154
#	202436
#	218739
#	223129
#	234329
#	244354
#	254619
#	265986
#	276959
#	288039
#	299829
#
# Disc length: 4233 seconds
#
# Revision: 1
# Processed by: cddbd v1.5.2PL0 Copyright (c) Steve Scherf et al.
# Submitted via: audiograbber 1.83.01
#
DISCID=b310871c
DTITLE=REGINALDO VELOSO - AÇAO DE GRAÇAS NO DIA DO SENHOR
DYEAR=2005
DGENRE=LITURGICO
TTITLE0=Benção da refeição fraterna: Advento - Ciclo de Natal 
TTITLE1=Benção da refeição fraterna: Natal 1- Ciclo de Natal 
TTITLE2=Benção da refeição fraterna: Natal 2 - Ciclo de Natal 
TTITLE3=Louvação: Advento 1 - Cico de Natal 
TTITLE4=Louvação: Advento 2 - Ciclo de Natal 
TTITLE5=Louvação: Natal - Ciclo de Natal
TTITLE6=Louvação: Epifania - Ciclo de Natal 
TTITLE7=Benção da refeição fraterna: Quaresma - Ciclo Pascal 
TTITLE8=Benção da refeição fraterna: Páscoa - Ciclo Pascal 
TTITLE9=Louvação: Quaresma 1 - Ciclo Pascal 
TTITLE10=Louvação: Quaresma 2 - Ciclo Pascal 
TTITLE11=Louvação: Quaresma 3 - Ciclo Pascal 
TTITLE12=Louvação: Páscoa 1 - Ciclo Pascal 
TTITLE13=Louvação: Páscoa 2 - Ciclo Pascal 
TTITLE14=Louvação: Ascensão - Ciclo Pascal
TTITLE15=Louvação: Pentecostes - Ciclo Pascal 
TTITLE16=Benção da refeição fraterna 1 - Tempo Comum 
TTITLE17=Benção da refeição fraterna 2 - Tempo Comum 
TTITLE18=Benção da refeição fraterna 3 - Tempo Comum 
TTITLE19=Benção da refeição fraterna (resposta) - Tempo Comum 
TTITLE20=Louvação do Povo de Deus - Tempo Comum 
TTITLE21=Louvação da terra de Deus - Tempo Comum 
TTITLE22=Louvação dos vocacionados - Tempo Comum 
TTITLE23=Louvação das Sagradas Escrituras - Tempo Comum 
TTITLE24=Louvação da missão - Tempo Comum 
TTITLE25=Louvação de Maria - Tempo Comum 
TTITLE26=Hoje é dia de festa - Tempo Comum 
TTITLE27=Evangelho cantilado - Tempo Comum 
EXTD=
EXTT0=
EXTT1=
EXTT2=
EXTT3=
EXTT4=
EXTT5=
EXTT6=
EXTT7=
EXTT8=
EXTT9=
EXTT10=
EXTT11=
EXTT12=
EXTT13=
EXTT14=
EXTT15=
EXTT16=
EXTT17=
EXTT18=
EXTT19=
EXTT20=
EXTT21=
EXTT22=
EXTT23=
EXTT24=
EXTT25=
EXTT26=
EXTT27=
PLAYORDER=
